<?xml version="1.0" encoding="utf-8"?>
<!-- Generator: Adobe Illustrator 28.0.0, SVG Export Plug-In . SVG Version: 6.00 Build 0)  -->
<svg version="1.1" id="Vrstva_1" xmlns="http://www.w3.org/2000/svg" xmlns:xlink="http://www.w3.org/1999/xlink" x="0px" y="0px"
	 viewBox="0 0 329.6 239.4" style="enable-background:new 0 0 329.6 239.4;" xml:space="preserve">
<style type="text/css">
	.st0{fill:#FF715B;}
</style>
<g>
	<g>
		<path class="st0" d="M43.8,133.7c-0.2-4.4-0.2-8-0.5-11.6c-0.1-1.2-0.7-2.5-1.5-3.4c-16.2-16-23.2-35.3-21-58
			C23.6,31.9,47,6.6,75.6,1.2c39-7.3,75.4,18.3,81.4,57.6c2.9,19.3-2.1,36.8-13.9,52.3c-1.2,1.6-1.6,2.8-1,4.9
			c0.8,2.9,0.6,6,0.8,9.1c12,3,24.6,6.1,37,9.2c1.4-2.2,3.1-4.4,4.2-6.8c0.5-1.1,0.2-2.8-0.2-4.1c-8.6-28.4,1.4-59,25.6-75.9
			c21.6-15.1,45-17.5,68.9-6.5c23.8,11,37,30.4,39.5,56.6c2.8,28.6-13.1,55.8-39.1,67.8c-3.3,1.5-6.1,2.8-6.1,7
			c0,0.8-0.6,1.7-1.1,3.2c8.2,2.4,16.2,5.1,24.4,6.9c8.8,2,17.8,3.2,26.7,4.5c5.4,0.8,6.9,2.2,6.9,7.8c0,26.5,0,10.6,0,37.1
			c0,5.7-1.8,7.5-7.3,7.5c-104.9,0-209.9,0-314.8,0c-5.6,0-7.5-1.8-7.5-7.3c0-36.8,0-31.2,0-68c0-3,1-5.2,3.2-7.2
			c11.1-9.9,23.9-16.8,37.7-22.1C42.1,134.3,43.4,133.8,43.8,133.7z M318.5,198c-24.2-2.7-46.8-10.1-68.8-18.9
			c-17.1-6.8-33.5-15.3-50.1-23.1c-6.1-2.9-11.8-6.5-18.1-8.8c-8.8-3.2-17.8-5.9-26.9-8.1c-10.1-2.4-20.3-4.6-30.8-3.8
			c-13.9,1.1-27.8,2-41.8,3c-7.2,0.5-14.6,0.3-21.5,1.9c-17.1,4-32.9,11.1-46.8,22c-2,1.6-2.8,3.2-2.7,5.8
			c0.1,32.9,0.1,23.4,0.1,56.3c0,1.2,0,2.5,0,3.8c102.7,0,205,0,307.5,0C318.5,203.9,318.5,222.3,318.5,198z M31.2,69.2
			c0.2,14.3,5.1,27.4,15.1,38.5c2.6,2.9,5,6.2,9.7,3.7c0.6-0.3,1.6-0.1,2.4-0.2c14.5-1.1,29-2.1,43.4-3.1c9.3-0.6,18.7-1.3,28.1-1.6
			c2.2-0.1,3.5-0.4,4.9-2.2c9.9-13.2,13.9-28,11.4-44.3c-4.4-29.4-31.3-51.1-60.5-49C54.9,13.2,31.4,38.2,31.2,69.2z M249.6,45.6
			c-35.3,0.1-62.2,31.2-57.2,66.1c0.9,6.3,2,11.5,9.8,14.3c12.5,4.4,24.4,10.9,36.5,16.5c9.1,4.2,18.4,8.1,27.2,12.9
			c3.4,1.9,5.7,1.6,8.7,0.1c24.2-11.7,37.4-38.8,31.5-64.7C299.9,64.2,276.7,45.5,249.6,45.6z M125.2,117.4L125.2,117.4
			c-22.4,1.7-44.9,3.3-67.3,4.9c-2.4,0.2-4.1,1.2-3.9,3.7c0.3,2.8,2.4,3.2,4.8,3c19.9-1.5,39.9-2.9,59.8-4.3
			c3.1-0.2,6.2-0.4,9.2-0.7c2.2-0.2,4.2-0.9,4.1-3.6c-0.1-2.7-2.1-3.2-4.3-3.2C126.8,117.4,126,117.4,125.2,117.4z M193.9,134.2
			c-0.9,1-2.4,1.9-2.8,3.1c-0.7,2.5,1.4,3.5,3.3,4.4c20.5,9.5,41,19,61.5,28.5c0.9,0.4,2,1.1,2.9,0.9c1.2-0.2,2.9-0.9,3.2-1.8
			c0.4-1.1-0.2-2.8-0.9-3.9c-0.4-0.8-1.7-1-2.6-1.5c-20.4-9.5-40.8-18.9-61.2-28.4C196.5,135.1,195.5,134.8,193.9,134.2z"/>
		<path class="st0" d="M150,146.3c2.6,0.7,6,1.6,9.4,2.5c16.2,4.5,31,12.3,45.9,19.7c19.3,9.6,39,18.1,59.5,24.7
			c0.4,0.1,0.9,0.3,1.3,0.5c3.3,1.3,4.7,4,3.8,7.1c-0.9,2.8-3.7,4.4-6.9,3.3c-7.6-2.5-15.3-4.8-22.6-8
			c-16.7-7.3-33.4-14.8-49.9-22.8c-13.5-6.6-27.2-12.4-41.8-16.1c-1.6-0.4-3.4-1.6-4.3-3C142,150.7,144.8,146.3,150,146.3z"/>
		<path class="st0" d="M120.7,152.6c-1.7-0.1-3.4-0.1-5.1-0.4c-3.1-0.5-4.8-2.9-4.6-5.9c0.2-2.9,2.3-4.9,5.5-4.9
			c2.6,0,5.3,0.1,7.9,0.5c3.6,0.5,5.6,2.9,5.4,5.9c-0.3,3.2-2.9,5.1-6.6,4.9C122.3,152.7,121.5,152.7,120.7,152.6L120.7,152.6z"/>
		<path class="st0" d="M139.2,66.8c-0.2,3.6-0.3,6.2-0.6,8.7c-0.4,3.9-2.8,6.4-6,6.2c-3.3-0.2-5-2.8-5-6.9c-0.1-6.1,0-12.4-1.1-18.4
			c-1.3-7.2-5.7-12.8-11.1-17.7c-1.5-1.3-2.8-3.9-2.7-5.8c0.2-4.3,5.4-5.9,9.1-3c8.6,6.9,14,15.9,16.1,26.8
			C138.7,60.3,138.9,64.1,139.2,66.8z"/>
		<path class="st0" d="M110,26.2c0.1,3.1-2.2,5.5-5.2,5.6c-4.3,0.2-8-2.7-8-6.2c0-3,2.3-5.3,5.4-5.4C106.6,20.2,109.9,22.7,110,26.2
			z"/>
		<path class="st0" d="M300.8,99.6c-0.3,14.8-4.6,25.1-11.5,34.5c-2.1,2.9-5.2,3.4-7.8,1.5c-2.5-1.8-3.1-5-1.1-7.9
			c4.3-6.2,7.7-12.7,8.9-20.2c1-6.3-0.1-12.3-2.2-18.2c-1.2-3.4-0.1-6.3,2.7-7.5c3-1.3,6.3,0,7.4,3.5
			C298.9,90.9,300.1,96.7,300.8,99.6z"/>
		<path class="st0" d="M283.7,79.3c-3.2,0-7-3.9-7.1-7.2c0-3,2.3-5.5,5.3-5.5c3.3-0.1,7.3,4,7.3,7.4
			C289.1,76.9,286.6,79.3,283.7,79.3z"/>
	</g>
</g>
</svg>
