<?xml version="1.0" encoding="utf-8"?>
<!-- Generator: Adobe Illustrator 28.0.0, SVG Export Plug-In . SVG Version: 6.00 Build 0)  -->
<svg version="1.1" id="Vrstva_1" xmlns="http://www.w3.org/2000/svg" xmlns:xlink="http://www.w3.org/1999/xlink" x="0px" y="0px"
	 viewBox="0 0 252.5 294.1" style="enable-background:new 0 0 252.5 294.1;" xml:space="preserve">
<style type="text/css">
	.st0{fill:#FF715B;}
</style>
<g>
	<path class="st0" d="M249.2,228.6c-3.5-2.2-6.7-3.9-9.9-5.1c-6.4-2.5-11.8-3.3-17.1-2.5c-0.3,0-0.6,0.1-1,0.2
		c-0.1-0.6-0.2-1.2-0.3-1.7c-0.8-4.2-2.7-8.3-6-12.9c-2.6-3.7-5.9-7.1-9.7-10.2c-2.6-2.1-5.7-2.1-8.2,0c-5.2,4.2-9,8.6-11.8,13.3
		l0,0c-9.9-4.4-20.8-7.9-33.1-10.4c2.3-0.4,4.6-0.9,6.8-1.4c7.9-1.7,14.6-4,20.4-6.9c5.1-2.6,8.8-5.3,11.5-8.6c3.4-4.2,4.7-9,3.7-14
		c-0.8-3.9-2.7-7.6-6-11.2c-3.8-4.2-8.6-7.8-15.1-11.2c-7.1-3.8-14.8-6.8-24.1-9.4c6.5-1,11.8-2.2,16.6-3.7c3.7-1.2,8.6-2.9,13-5.9
		c3.1-2.1,5.2-4.2,6.6-6.8c2.7-4.9,2.3-10.1-1.1-15.4c-1.7-2.7-4.1-5-7.3-7.5c-4.2-3.1-9.1-5.7-15-8C150,84.6,136.9,82,122,81.4
		c-7.2-0.3-14.4-0.1-21.3,0.7c-10.1,1.1-19.1,3.1-27.4,6c-8.2,2.9-14.4,6.2-19.6,10.4c-2.9,2.4-5.1,4.9-6.7,7.7
		c-3.1,5.5-2.6,11.7,1.5,16.6c1.9,2.2,4.3,4.1,7.6,5.9c3.7,2,8,3.7,13.4,5.1c-10.8,2-20.5,4.9-29.4,8.8c-7.4,3.2-13.2,6.7-18,10.7
		c-4.3,3.6-7,7.1-8.8,11.1c-1.9,4.5-2.1,8.9-0.4,13.1c1.2,3,3.1,5.6,6,8.1c3.5,3,7.7,5.4,13.2,7.6c9.7,3.9,19.6,5.8,28.2,7.2
		c-11.3,2.6-21.3,6-30.2,10.2c-8.2,3.9-14.4,7.9-19.5,12.6c-4.3,3.9-7.1,7.7-8.9,11.9c-1.2,2.9-1.8,5.7-1.6,8.5
		c0.2,5.1,2.3,9.6,6.4,13.8c3.2,3.2,7.2,5.9,12.5,8.5c7.3,3.5,15.5,6.1,26.4,8.5c8.5,1.8,17.7,3.2,28.4,4.2
		c9.4,0.9,17.7,1.4,25.4,1.4c6.2,0.1,12.5,0,18.6-0.1l5.2-0.1c0.5,0,1-0.2,1.4-0.3c0.1,0,0.2-0.1,0.3-0.1c1.1,0.5,2.2,0.3,3,0.2
		c0.2,0,0.4-0.1,0.7-0.1c5.1-0.2,11-0.5,16.8-1.2c4.8-0.5,9.7-1.3,14.5-1.9c1.9-0.3,3.7-0.5,5.6-0.8c0.1,4.5,0.7,8.9,1.9,13.3
		c0.9,3.3,3.2,5.2,6.5,5.2c0.2,0,0.4,0,0.6,0c5.5-0.4,10.2-1.3,14.4-2.8c5.4-1.9,9.4-4.4,12.6-7.8c0.6,0.7,1.2,1.3,1.8,1.8
		c2.4,2.2,5.3,3.9,9,5.4c4.8,1.9,10.1,3,16.3,3.4c3.5,0.2,6.1-1.7,7-5.1c1.4-5.2,2-10.5,1.8-15.6c-0.2-5.2-1.3-9.7-3.4-13.6
		c2.8-1.3,5.4-3.2,7.7-5.5c4.4-4.5,7.9-10.1,10.7-17.3C253.2,233.6,252.2,230.6,249.2,228.6z M122.8,130.5c-1.5,0-3,0-4.5,0
		c-0.7,0-1.4,0-2.1,0l0,0l0,0c-11.5,0.1-21.6-0.6-30.6-1.9c-6.6-1-14.2-2.4-21.7-5.4c-2.3-0.9-4.9-2.1-7.1-3.9
		c-0.9-0.8-1.7-1.5-2.2-2.2c-1.4-1.7-1.7-3.6-0.8-5.7c1.1-2.8,3.3-4.9,5.4-6.5c3.6-2.9,8-5.4,13.9-7.7c8.9-3.5,18.6-5.8,29.6-6.9
		c7.5-0.8,14.8-0.9,21.7-0.5c13.8,0.9,25.7,3.5,36.2,7.8c4.8,2,8.5,4,11.7,6.5c2.3,1.7,3.8,3.3,5,4.9c0.6,0.9,1.1,1.8,1.4,2.7
		c0.7,2.1,0.3,3.9-1.2,5.8c-2.2,2.6-5.2,4.1-7.8,5.2c-6.5,2.9-13.3,4.3-18.5,5.2C142.2,129.5,133,130.3,122.8,130.5z M77.3,140.8
		c9.6-1.5,19.4-2.1,28.9-1.9c7.1,0.1,14.2,0.7,21.1,1.6c10.7,1.5,20.3,3.8,29.3,7c8.5,3.1,15,6.4,20.6,10.5c3.4,2.6,5.7,4.9,7.4,7.5
		c0.9,1.5,1.5,2.8,1.8,4.2c0.6,3-0.2,5.6-2.8,8.3c-3.2,3.3-7.2,5.3-10.4,6.7c-8.1,3.5-16.6,5.4-23.1,6.6c-7.9,1.5-16.4,2.5-25.1,3
		c-4.5,0.3-9,0.4-13.5,0.6c-1.5,0.1-3,0.1-4.6,0.2V195h-1.4c-1.2,0-2.4,0-3.6,0c-2.6,0-5.3,0-8,0c-8.3-0.2-16.7-0.8-24.8-1.7
		c-9.4-1.1-17.6-2.6-24.9-4.6c-7.1-2-12.2-4.1-16.7-6.8c-2.3-1.4-4-2.8-5.3-4.4c-2.6-3.1-3-6.5-1.1-10.2c1.3-2.6,3.3-5,6.4-7.6
		c5-4.1,11-7.6,19.1-10.7C59,143.9,70.1,141.9,77.3,140.8z M182.3,253.3c-5.6,0.9-10.3-0.4-14.4-4.1l-0.4-0.4c-1.1-1-2.2-2-3-3.1
		c-1.3-1.7-2.4-3.6-3.2-5.2c-0.8-1.5-1.5-3-2.3-4.6c-0.1-0.3-0.3-0.6-0.4-0.9c0,0,0.1,0,0.1-0.1c0.9-0.5,1.7-1,2.5-1.4
		c4.2-2.3,8.2-3.7,12-4.3c3-0.5,5.6-0.3,8,0.4c0.2,0.1,0.5,0.2,0.7,0.2c2.3,7.6,4.6,11.1,12.5,19.2
		C190,251.3,186.1,252.7,182.3,253.3z M83.5,204.6c7.7-0.9,13.8-1.4,19.5-1.4c0.3,0,0.6,0,1,0c1.7,0,3.4,0,5.2,0c2.3,0,4.7,0,7.1,0
		c6.6,0.2,13.6,0.7,21.3,1.8c10.1,1.4,19.7,3.5,28.6,6.2c5.8,1.8,10.9,3.7,15.6,5.9c0,0,0.1,0,0.1,0.1l-0.8,3.9
		c-4.8-0.9-9.8-0.4-15.3,1.4c-4.3,1.4-8.5,3.4-12.7,6.2c-2.9,1.9-3.9,4.9-2.7,8c3,7.8,6.8,13.8,11.8,18.4c1.9,1.8,4.2,3.3,6.6,4.5
		c-1.3,2.5-2.2,5-2.7,7.5c-0.2,0-0.4,0.1-0.6,0.1c-7.3,1.4-14.7,2.4-22.1,3c-4.6,0.4-10.6,0.9-16.6,1.1c-8.8,0.3-16.7,0.5-24.8,0.4
		c-7.6-0.1-15.8-0.5-25.1-1.2c-11.9-0.9-22.8-2.5-33.2-5c-6.2-1.5-14.3-3.7-22-7.5c-2.8-1.4-6.5-3.5-9.4-6.6c-2.9-3-4.1-6-3.8-9.3
		c0.2-2.4,1.1-4.7,2.8-7.2c2.5-3.7,6-6.9,11.1-10.4c6.6-4.5,14.3-8.2,24.1-11.6C57.6,209,69.8,206.3,83.5,204.6z M174.3,267.9
		c0.6-2.3,1.6-4.5,2.9-6c8.5,0.4,16-2.8,21.9-6c0,0.1,0,0.3,0.1,0.4c0.9,5.2,0.8,9.6,0,13.7c-1.1,5.3-4.1,9.2-9.2,11.8
		c-3.6,1.9-7.7,3.1-12.8,3.7c-0.7,0.1-1.5,0.2-2.3,0.2c0-0.2-0.1-0.4-0.1-0.6c-0.3-1.3-0.5-2.6-0.7-3.9
		C173.2,276,173.3,271.8,174.3,267.9z M213.2,224.4c0,0,0,0-0.1,0.1c-5.4,3.5-9.7,8.7-13.5,16.4c-0.2,0.5-0.4,0.9-0.7,1.4
		c-4.5-4.5-7.2-8.4-8.8-12.8c-1.2-3.5-1.3-6.9-0.1-10.6c0.4-1.2,0.9-2.3,1.5-3.6l0.1-0.3c0.9-2,2.2-3.7,3.6-5.4
		c1.8-2.2,3.9-4.2,5.9-5.9c0.1,0.1,0.2,0.2,0.4,0.3c0.5,0.5,1.1,1.1,1.6,1.6c1.4,1.3,2.9,2.7,4.1,4.2c1.6,1.8,2.9,3.9,4.2,6.6
		c1,2.1,1.5,4.5,1.7,7.5C213.2,224.3,213.2,224.4,213.2,224.4z M207.7,258.1c4.6,2.1,8.7,3.3,12.8,3.6c1.6,0.2,3.2,0.1,4.5,0.1
		c0.2,0,0.2,0,0.2,0s0.1,0,0.2,0.2c1.7,2.4,2.8,5.2,3.3,8.9c0.6,4.4,0.2,9.1-1.1,14.8c-0.2,0-0.3,0-0.5,0c-1.2-0.1-2.4-0.3-3.6-0.4
		c-5.5-0.9-9.7-2.4-13.1-4.7c-1.9-1.2-3.4-2.7-4.5-4.4C208.2,269.8,208.2,263.4,207.7,258.1z M234.9,248.8
		c-3.3,3.1-6.8,4.7-10.8,4.8c-2.3,0.1-4.7-0.2-7.2-0.9c-3.7-1-7.5-2.7-11.3-5.1c0.1-0.1,0.1-0.3,0.2-0.4c0.5-1.1,1-2.1,1.5-3.2
		c2.2-4.4,4.6-7.7,7.4-10.3c2.7-2.5,5.5-4,8.6-4.5c2.5-0.4,5-0.3,7.8,0.4c4.3,1,8.5,2.8,12.8,5.4l-0.3,0.6c-0.6,1.2-1.1,2.5-1.7,3.7
		C240.1,242.9,237.7,246.1,234.9,248.8z"/>
	<path class="st0" d="M113.6,36.8c0.3,0.4,0.7,0.8,1,1.2c1.9,2.3,2.2,7.3-0.1,10.2l-0.8,1c-0.6,0.7-1.2,1.5-1.8,2.2
		c-2.5,3-3.8,6.5-4,10.4c-0.1,1.9,0.5,3.3,1.8,4.1c0.7,0.5,1.5,0.7,2.3,0.7c0.6,0,1.3-0.2,1.9-0.5c1.4-0.7,2.2-2.1,2.2-3.8
		c0-2.3,0.8-4.2,2.5-6.2c0.6-0.7,1.2-1.4,1.8-2.2l0.4-0.5c4.7-5.8,4.7-15,0-20.9l-0.2-0.2c-0.9-1.1-1.8-2.2-2.7-3.3
		c-2.5-3-2.5-8,0-10.9c1.3-1.5,2.3-2.8,3.2-4c2-2.6,3.1-5.6,3.3-9.3V4.6V4.4c0-0.2-0.1-0.3-0.1-0.5c-0.1-0.5-0.1-1-0.3-1.5
		c-0.6-1.6-2.3-2.7-4-2.5c-1.7,0.1-3.2,1.3-3.7,3c-0.1,0.5-0.2,1.1-0.2,1.6c0,1.8-0.6,3.4-1.8,4.9c-0.5,0.6-1,1.2-1.5,1.8
		c-0.4,0.5-0.7,0.9-1.1,1.4c-4.9,6.2-5.1,14.6-0.5,21C112,34.8,112.8,35.8,113.6,36.8z"/>
	<path class="st0" d="M82.8,59.8c-0.4,0.5-0.9,1.1-1.3,1.6c-2.7,3.1-4.1,6.7-4.2,10.7c-0.1,2.7,1.6,4.7,4,4.8c0.1,0,0.1,0,0.2,0
		c2.3,0,4-1.7,4.1-4.3c0-0.1,0-0.2,0-0.3c0-1.8,0.6-3.4,1.8-4.9c0.4-0.5,0.8-1,1.2-1.5c0.6-0.8,1.2-1.5,1.8-2.3
		c4.5-6.1,4.5-14.6-0.1-20.6c-0.5-0.7-1.1-1.3-1.6-2c-0.4-0.5-0.8-1-1.2-1.5c-2.6-3.3-2.6-7.7-0.1-11c0.7-0.9,1.4-1.8,2.1-2.6
		c2.7-3.2,4.1-6.8,4.2-10.9c0-0.3,0-0.6,0-0.8c-0.2-2.2-1.8-3.7-3.9-3.8c-2.2-0.1-4,1.3-4.3,3.6c-0.1,0.4-0.1,0.8-0.1,1.1v0.3
		c-0.1,1.5-0.5,2.8-1.3,3.8c-1,1.3-1.8,2.4-2.7,3.4C75.9,29,75.9,39,81.5,45.3c0.5,0.5,0.9,1,1.3,1.6l0.6,0.7
		c1.2,1.4,1.7,2.5,1.9,3.7c0.5,3.3,0,5.7-1.7,7.6L82.8,59.8z"/>
	<path class="st0" d="M145.6,48.8c1.8,3.1,1.8,6.2-0.1,9.3c-0.5,0.9-1.2,1.7-1.9,2.5c-0.3,0.3-0.5,0.6-0.8,0.9
		c-2.2,2.7-3.4,5.2-3.8,7.9c-0.3,1.6-0.3,2.9-0.2,4c0.2,2,1.9,3.5,4,3.5c0,0,0,0,0.1,0c1.9,0,3.5-1.2,3.9-3c0.2-0.6,0.2-1.2,0.2-1.7
		c0.1-1.5,0.4-2.5,0.9-3.4c0.9-1.4,2-2.8,3-4.1c2.9-3.5,4.2-7.5,4.2-12.8l0,0c0-2.2-1-5.8-3.6-9.2c-0.8-1-1.8-2.2-2.8-3.4
		c-2.4-2.9-2.4-7.9-0.1-10.8l2.4-3c2.1-2.6,3.2-5,3.7-7.5c0.3-1.7,0.3-3.1,0.2-4.4c-0.2-1.9-2-3.3-4-3.3c-1.9,0-3.5,1.3-3.9,3.2
		c-0.1,0.5-0.2,1-0.2,1.6c0,1.8-0.6,3.3-1.7,4.8c-0.7,0.9-1.4,1.8-2.1,2.6c-5.7,6.6-5.8,16.4,0,22.8
		C143.9,46.5,144.9,47.6,145.6,48.8z"/>
</g>
</svg>
