<?xml version="1.0" encoding="utf-8"?>
<!-- Generator: Adobe Illustrator 28.0.0, SVG Export Plug-In . SVG Version: 6.00 Build 0)  -->
<svg version="1.1" id="Vrstva_1" xmlns="http://www.w3.org/2000/svg" xmlns:xlink="http://www.w3.org/1999/xlink" x="0px" y="0px"
	 viewBox="0 0 279.6 277.3" style="enable-background:new 0 0 279.6 277.3;" xml:space="preserve">
<style type="text/css">
	.st0{fill:#FFFFFF;}
</style>
<g>
	<path class="st0" d="M62.2,120.3l-0.5-0.3c-0.3-0.2-0.6-0.3-0.9-0.5C45.1,111.2,36,98.2,33.7,80.8c-1.4-10.3-5.8-17.7-13.4-22.6
		c-0.7-0.4-1.3-1-1.9-1.6l-0.1-0.1c-0.2-0.2-0.4-0.4-0.6-0.5c-4.3-3.9-6.7-8-7.1-12.2c-0.6-6.4-1-13.2,0-19.5c0.7-4.5,3-7.9,6.5-9.7
		c3.7-1.9,8.5-1.8,13,0.4c5.5,2.7,9.5,7.3,11.9,13.7c0.9,2.6,1.6,5.4,2.3,8c0.3,1.2,0.6,2.5,1,3.7c0.5,1.9,1.3,3.1,2.5,3.8
		c1,0.6,2.2,0.7,3.5,0.3c1.9-0.6,4-2.1,3.1-6.2c-1.8-8.4-4-16.6-9.9-23.6c5.2-2.1,10.3-1.3,15.8,2.4c4.8,3.3,7.9,7.9,9.4,14.2
		c0.4,1.7,1.2,2.9,2.3,3.6c1,0.6,2.2,0.7,3.5,0.4s2.3-1,2.9-2c0.7-1.2,0.8-2.6,0.3-4.5c-1.8-6.9-4.9-12.3-9.5-16.5
		c6.3-1.8,11.5-0.5,15.5,3.9c2.1,2.3,3.7,5.4,5.2,8.5c0.3,0.6,0.6,1.3,1,1.9c0.8,1.6,2.3,4.5,5.9,3.4c1.7-0.5,2.5-1.5,2.9-2.3
		c0.6-1.2,0.6-2.7,0-4.2c-1.5-3.8-2.8-6.6-4.3-9.1c-0.9-1.6-2.2-3-3.3-4.3c6.4-1.3,12,0.9,15.6,6.2c1.6,2.3,2.6,5.1,3.6,7.8l0.3,0.7
		c0.4,1.2,1.8,4.9,5.7,3.9c1.8-0.5,2.7-1.5,3.1-2.2c0.7-1.2,0.7-2.7,0.2-4.4c-0.7-2.1-1.5-4.2-2.3-6.4l-0.4-1.2c0.6,0,1.2-0.1,1.7,0
		c6.4,0.6,10.7,4.5,11.7,10.7c1.4,7.8,5.3,13.3,12.3,17.5C152.8,48.1,159.7,56,164,66c2.8,6.6,5.6,13.4,8.3,20
		c2.4,6,5,12.1,7.5,18.2c0.7,1.7,2.7,3.4,4.6,3.9c2.8,0.9,5.8,1.1,8.3,1.3c8,0.5,13.7,3.6,17.4,9.7c0.5,0.9,1.2,1.6,1.8,2.3l0.4,0.5
		c11.1,13.1,22.4,20.8,35.7,24.2c7.5,1.9,15,2.3,22.4,1.1c1.8-0.3,3.9-2.6,4.1-4.6c0.1-1.2-0.2-2.3-1-3.1c-0.9-1-2.4-1.5-4.1-1.5
		c-0.4,0-0.9,0.1-1.3,0.1h-0.3c-7.7,0.9-15.3-0.1-22.6-2.9c-10.8-4.2-20-11.6-28.9-23.5c-4.9-6.6-11.1-10.3-18.8-11.1
		c-2.4-0.3-4.7-0.6-7-1h-0.2c-0.6-0.1-1.2-0.2-1.7-0.3L184,88.5c-3.4-7.9-6.7-15.8-10-23.6c-5.5-13.1-13.9-23.2-24.8-30
		c-5-3.1-7.6-6.7-8.8-12.1c-1.4-6.4-4.8-11.4-9.8-14.6C125.4,4.9,119,4,112.3,5.5c-0.7,0.2-1.5,0-1.8-0.2c-8.2-6.1-17.4-7-27.2-2.5
		c-0.9,0.4-1.3,0.5-1.4,0.5l0,0c-6.6-2.2-13.4-1.5-21.5,2c-0.9,0.4-1.6,0.5-1.8,0.4c-7.8-2.8-15.1-2-21.8,2.2l-0.3-0.2
		c-0.8-0.4-1.5-0.8-2.3-1.2c-7-3.4-14.7-3.7-21-0.6c-6,3-10.2,8.5-11.7,15.7c-4.4,20.8,0.7,35.8,15.5,46c3.5,2.4,5.7,5.8,6.6,10.5
		c0.2,1.2,0.5,2.5,0.7,3.8c0.6,3.7,1.3,7.6,2.7,11.2c1.9,4.9,4.4,9.7,6.8,14.3c1,2,2,3.9,3,5.9c-4.8,8.4-5.4,17.1-1.6,26.7
		c8.7,22.4,6.7,41.1-5.9,57.2c-1,1.3-1.4,2.6-1.3,3.9c0.2,1.2,0.9,2.3,2.1,3.1c0.6,0.4,1.5,0.9,2.7,0.9c1.4,0,2.7-0.8,3.9-2.3
		c5.8-7.3,9.5-14.8,11.5-23.1c3.3-13.9,1.8-28.2-4.9-45c-2.1-5.2-1.8-10.1,0.9-15.3c0.3,0.2,0.6,0.5,0.9,0.7l1.8,1.2
		c3.5,2.3,7.1,4.7,10.7,6.9c1.4,0.9,2.8,1.2,4.1,0.8c0.8-0.2,2-0.8,2.8-2.4C65.6,124.2,64.8,121.7,62.2,120.3z"/>
	<path class="st0" d="M279.5,204.6c-0.3-1.8-2.4-4-4.2-4.3c-3-0.5-6.3-0.6-9.6-0.3c-3.4,0.3-6.7,0.7-10,1.1h-0.2
		c-3.4,0.4-6.9,0.8-10.4,1.1c-9.4,0.8-16.8-1.3-22.6-6.2l-0.2-0.2c-1.5-1.3-3.6-3.1-6.4-1.3c-3.3,2.1-2,5.4-1.2,7.1l0.8,1.9
		c1.9,4.7,3.9,9.6,5.8,14.4c2.8,7.2,3.5,14.6,2.1,22.3c-2.5,13.8-13,24.3-26.6,26.6c-14.5,2.5-25.6-3-33.1-16.5l-0.1-0.2
		c-0.6-1.1-1.2-2.2-1.7-3.3c-1.9-4.5-3.9-9.1-5.8-13.6l-0.1-0.3c-2.3-5.5-4.7-11-7-16.4c-6.5-15.2-13.6-28-21.6-39.1
		c-1.1-1.5-3.5-3-5.5-2.8c-3.8,0.3-3.7,3.9-3.7,5.9s0,4.3-0.3,6.5c-1.4,7.9-5.7,14.1-11.9,21c-8.3,9.3-13.9,18.9-17,29.2
		c-0.9,3-1.8,6.1-2.1,9.3c-0.2,1.9,1.7,4.4,3.3,5.1c1.4,0.6,2.9-0.5,4.8-2.1l0.2-0.2c0.8-0.7,1-1.8,1.1-2.6l0.1-0.3
		c2-11.3,7.6-22.1,17.2-32.7c6.4-7.1,10.3-13.7,12.6-21.1c0.6,1,1.1,1.9,1.6,2.8l2.7,5.4c3.8,7.6,7.7,15.6,11.4,23.4
		c2.2,4.7,4.3,9.6,6.4,14.3c2.4,5.4,4.8,11,7.4,16.4c3.7,7.8,8.7,13.3,15.2,17c6.2,3.5,13.2,5.4,20.4,5.4c4.9,0,9.7-0.8,14.3-2.5
		c11.6-4.2,20.8-13.1,25.2-24.5c4.3-11.1,4.2-23-0.3-35.2c-0.6-1.7-1.3-3.5-2-5.3l0,0c6.6,2,13.5,2.6,22.2,1.6
		c6.6-0.7,13.4-1.1,20-1.6l4.5-0.3c1.8-0.1,3.2-0.7,4-1.8C279.4,206.8,279.7,205.7,279.5,204.6z"/>
	<path class="st0" d="M166,141.7c5.6,2.4,8.9,6.1,10.1,11.4c3.6,15.9,13.7,27.3,29.9,34c0.2,0.1,0.4,0.2,0.7,0.3c1,0.4,2.2,1,3.4,1
		c0.2,0,0.3,0,0.5,0c1.5-0.2,3.8-1.4,4.4-3.1c0.6-2.1-1.2-4.5-1.6-5c-0.7-0.8-1.7-1.1-2.6-1.3c-0.3-0.1-0.6-0.2-0.9-0.2
		c-13.6-5.4-21.6-14.5-24.7-27.6c-1.4-6.1-4.7-11-9.7-14.5c-2.4-1.7-5.1-3-8-4.4c-7.6-3.6-13.9-9.5-19.1-18c-1.9-3-0.9-7,2.2-9.1
		c1.5-1,3.2-1.3,4.8-1c1.4,0.3,2.5,1.1,3.2,2.2c7.5,11.8,17.3,18.9,29.9,21.7c5.5,1.2,9.7,4.3,12.5,9.3c1,1.7,2.2,2.7,3.5,3.1
		c1.2,0.3,2.4,0,3.7-0.8c3.5-2.4,1.5-5.9,0.8-7.2c-4.1-7.2-10.8-11.9-19.9-14c-9.3-2.1-16.3-7.4-22.2-16.5
		c-3.9-6.1-10.5-8.6-17.2-6.6c-6.6,2-11.5,8.4-12.1,15.7c0,0.2,0,0.5,0.1,0.7c0.3,0.8,0.6,1.6,0.9,2.5c0.6,1.9,1.3,3.9,2.4,5.7
		C147.4,130.1,155.6,137.3,166,141.7z"/>
	<path class="st0" d="M81.1,82.6c0.4-2.6,2.6-4.3,5.7-4.5c3.4-0.2,6,1.5,7.1,4.6c3.5,10.3,3.9,19.2,1.5,27.9c-2.4,8.8-1,16.6,4.1,23
		c9,11.2,11,23.7,6.2,38.1c-1.2,3.6-0.3,6,2.6,7c0.6,0.2,1.2,0.3,1.7,0.3c0.6,0,1.2-0.1,1.8-0.4c1.2-0.6,2.2-1.9,2.8-3.7
		c5.6-17.3,3.4-32.7-6.6-45.6c-4-5.1-5-10.4-3.4-17.2c0.7-2.7,1.1-5.5,1.6-8.7c0.2-1.5,0.4-3,0.7-4.6c0-0.2,0-0.4,0-0.6
		c-0.3-1.6-0.7-3.3-1-5.1c-0.8-4.3-1.7-8.7-3-13.1c-1.2-4.3-4.1-7.7-7.9-9.7c-3.9-2-8.4-2.4-12.7-1c-8.7,2.9-12.5,11.1-9.5,20.3
		c3.3,10.2,3.1,18.7-0.8,26.5c-0.5,1-0.9,2.1-1.2,3.2c-0.2,0.5-0.3,1.1-0.5,1.6c-2.4,6.5-2.3,13.2,0.3,20.1c1.3,3.4,3.3,4.7,6.1,3.8
		c1.8-0.5,2.6-1.6,2.9-2.3c0.6-1.3,0.5-2.8-0.2-4.5c-2.2-5.1-1.9-10.4,0.7-17.1c1.5-3.7,2.9-7.6,3.8-11.6c1.6-7.6-0.1-14.9-2.3-22.3
		C81.1,85.2,80.9,83.7,81.1,82.6z"/>
	<path class="st0" d="M138.2,91.5c6.2-5.3,14.6-5.3,21.3,0.1c3,2.4,5.5,2.3,7.5-0.1c1.3-1.6,2.1-4.2-1.5-7.1c-4.8-4-10.4-6-16.6-6.1
		c-10.6,0-20,6.3-24,15.9c-3.9,9.5-1.8,20.6,5.3,27.7c0.6,0.7,2.2,2.2,4.1,2.2l0,0c1.1,0,2.1-0.5,3.1-1.4c1.5-1.4,2.7-3.9-0.3-7.2
		c-1.2-1.4-2.1-2.5-2.7-3.7C130.8,105,132.4,96.5,138.2,91.5z"/>
	<path class="st0" d="M69.9,80.8l-0.2-1.5c0-0.2-0.1-0.4-0.2-0.5c0.1-0.4,0.1-0.9,0.2-1.3c0.2-1.6,0.5-3.1,0.9-4.5
		c2.2-6.7,8.7-11.2,15.8-11c7.6,0.2,13.5,5,15.6,12.5c0.5,1.8,1.6,6,6.1,4.8s3.4-5.5,3-7.1c-1.9-7.6-7.2-13.9-14.4-17.2
		c-7.2-3.3-15.3-3.1-22.3,0.4c-9.7,4.9-15.6,16-13.9,26.4c0.6,3.9,2.9,4.7,4.6,4.7c0.2,0,0.3,0,0.5,0c1.4-0.1,2.5-0.6,3.2-1.5
		C69.7,83.9,70,82.5,69.9,80.8z"/>
</g>
</svg>
