<?xml version="1.0" encoding="utf-8"?>
<!-- Generator: Adobe Illustrator 28.0.0, SVG Export Plug-In . SVG Version: 6.00 Build 0)  -->
<svg version="1.1" xmlns="http://www.w3.org/2000/svg" xmlns:xlink="http://www.w3.org/1999/xlink" x="0px" y="0px"
	 viewBox="0 0 39.1 26.8" style="enable-background:new 0 0 39.1 26.8;" xml:space="preserve">
<style type="text/css">
	.st0{fill:#FFFFFF;stroke:#FFFFFF;stroke-width:0.25;stroke-linecap:round;stroke-linejoin:round;stroke-miterlimit:10;}
	.st1{fill:#001746;}
	.st2{fill:#FF715B;}
	.st3{fill:none;stroke:#001746;stroke-width:0.942;stroke-miterlimit:10;}
</style>
<g id="BACKGROUND">
</g>
<g id="OBJECTS">
	<path class="st2" d="M39,0.4C39,0.4,39,0.4,39,0.4C39,0.4,39,0.4,39,0.4c-0.1-0.1-0.1-0.2-0.1-0.2c0,0,0,0-0.1-0.1
		c0,0-0.1-0.1-0.1-0.1c0,0,0,0-0.1,0c-0.1,0-0.2,0-0.2,0H0.7h0c0,0,0,0,0,0C0.6,0,0.5,0,0.4,0c0,0,0,0-0.1,0c0,0-0.1,0.1-0.1,0.1
		c0,0,0,0-0.1,0.1c0,0-0.1,0.1-0.1,0.1c0,0,0,0,0,0c0,0,0,0,0,0c0,0.1,0,0.1,0,0.2c0,0,0,0,0,0v25.5c0,0.4,0.3,0.7,0.7,0.7h37.7
		c0.4,0,0.7-0.3,0.7-0.7V0.7c0,0,0,0,0,0C39.1,0.6,39,0.5,39,0.4z M37.7,24.4L25.3,13.3L37.7,2.2V24.4z M22.8,15.5l1.4-1.3
		l12.4,11.1H2.4l12.4-11.1l1.4,1.3c0.9,0.8,2.1,1.3,3.3,1.3S21.9,16.3,22.8,15.5z M1.3,24.4V2.2l12.5,11.1L1.3,24.4z M36.6,1.3
		L21.9,14.5c-1.4,1.2-3.4,1.2-4.8,0L2.4,1.3H36.6z"/>
</g>
<g id="DESIGNED_BY_FREEPIK">
</g>
</svg>
