<?xml version="1.0" encoding="utf-8"?>
<!-- Generator: Adobe Illustrator 28.0.0, SVG Export Plug-In . SVG Version: 6.00 Build 0)  -->
<svg version="1.1" xmlns="http://www.w3.org/2000/svg" xmlns:xlink="http://www.w3.org/1999/xlink" x="0px" y="0px"
	 viewBox="0 0 27.2 39.1" style="enable-background:new 0 0 27.2 39.1;" xml:space="preserve">
<style type="text/css">
	.st0{fill:#FFFFFF;stroke:#FFFFFF;stroke-width:0.25;stroke-linecap:round;stroke-linejoin:round;stroke-miterlimit:10;}
	.st1{fill:#001746;}
	.st2{fill:#FF715B;}
	.st3{fill:none;stroke:#001746;stroke-width:0.942;stroke-miterlimit:10;}
</style>
<g id="BACKGROUND">
</g>
<g id="OBJECTS">
	<g>
		<path class="st2" d="M13.6,7.5c-3.4,0-6.1,2.7-6.1,6.1c0,3.4,2.7,6.1,6.1,6.1c3.4,0,6.1-2.7,6.1-6.1C19.7,10.2,17,7.5,13.6,7.5z
			 M13.6,18.4c-2.6,0-4.8-2.1-4.8-4.8c0-2.6,2.1-4.8,4.8-4.8c2.6,0,4.8,2.1,4.8,4.8C18.4,16.2,16.2,18.4,13.6,18.4z"/>
		<path class="st2" d="M13.6,0C6.1,0,0,6.1,0,13.5c0,0.5-0.8,13.1,13.1,25.4c0.1,0.1,0.3,0.2,0.4,0.2s0.3-0.1,0.4-0.2
			c13.7-12.1,13.2-24.6,13.1-25.4C27.2,6.1,21.1,0,13.6,0z M13.6,37.5C0.7,25.8,1.4,13.8,1.4,13.6c0-6.8,5.5-12.2,12.2-12.2
			s12.2,5.5,12.2,12.2c0,0,0,0,0,0C25.9,13.8,26.5,25.8,13.6,37.5z"/>
	</g>
</g>
<g id="DESIGNED_BY_FREEPIK">
</g>
</svg>
