<?xml version="1.0" encoding="utf-8"?>
<!-- Generator: Adobe Illustrator 28.0.0, SVG Export Plug-In . SVG Version: 6.00 Build 0)  -->
<svg version="1.1" xmlns="http://www.w3.org/2000/svg" xmlns:xlink="http://www.w3.org/1999/xlink" x="0px" y="0px"
	 viewBox="0 0 38.9 39" style="enable-background:new 0 0 38.9 39;" xml:space="preserve">
<style type="text/css">
	.st0{fill:#FFFFFF;stroke:#FFFFFF;stroke-width:0.25;stroke-linecap:round;stroke-linejoin:round;stroke-miterlimit:10;}
	.st1{fill:#001746;}
	.st2{fill:#FF715B;}
	.st3{fill:none;stroke:#001746;stroke-width:0.942;stroke-miterlimit:10;}
</style>
<g id="BACKGROUND">
</g>
<g id="OBJECTS">
	<path class="st2" d="M37.3,35.4c1-0.7,1.5-1.8,1.6-3c0.1-1.2-0.4-2.4-1.2-3.2l-3.5-3.5c-1.4-1.4-3.7-1.6-5.3-0.4l-3.6,2.3
		c0,0-2.4,0.9-8.7-5.3c-6.2-6.3-5.4-8.6-5.4-8.6c0,0,0,0,0,0l2.3-3.7c1.2-1.6,1.1-3.9-0.4-5.4L9.7,1.2C8.9,0.4,7.7-0.1,6.5,0
		c-1.2,0.1-2.3,0.7-3,1.6c0,0,0,0,0,0.1L1.7,4.6C1.5,5-5.2,14.5,9.5,29.3l0,0c0,0,0,0.1,0.1,0.1c0,0,0.1,0.1,0.1,0.1c0,0,0,0,0,0
		c7.7,7.6,13.9,9.5,18.2,9.5c4,0,6.2-1.6,6.4-1.7L37.3,35.4z M10.6,28.5C10.6,28.4,10.6,28.4,10.6,28.5L10.6,28.5
		C10.5,28.4,10.5,28.4,10.6,28.5c-0.1-0.1-0.1-0.1-0.1-0.1C-3.4,14.4,2.6,5.7,2.9,5.3l1.8-2.9c0.5-0.6,1.2-1,2-1.1
		c0.8-0.1,1.6,0.2,2.2,0.8l3.5,3.5c1,1,1.1,2.5,0.2,3.7L10.1,13c-0.3,0.5-1.4,3.3,5.6,10.3c7,6.9,9.8,5.9,10.3,5.6l3.7-2.4
		c1.1-0.8,2.6-0.7,3.6,0.3l3.5,3.5c0.6,0.6,0.9,1.4,0.8,2.2c-0.1,0.8-0.5,1.5-1,2l-3,1.8C33.2,36.4,24.6,42.3,10.6,28.5z"/>
</g>
<g id="DESIGNED_BY_FREEPIK">
</g>
</svg>
